<?xml version="1.0" encoding="UTF-8" standalone="no"?>
<!-- Created with Inkscape (http://www.inkscape.org/) -->

<svg
   xmlns:dc="http://purl.org/dc/elements/1.1/"
   xmlns:cc="http://creativecommons.org/ns#"
   xmlns:rdf="http://www.w3.org/1999/02/22-rdf-syntax-ns#"
   xmlns:svg="http://www.w3.org/2000/svg"
   xmlns="http://www.w3.org/2000/svg"
   xmlns:sodipodi="http://sodipodi.sourceforge.net/DTD/sodipodi-0.dtd"
   xmlns:inkscape="http://www.inkscape.org/namespaces/inkscape"
   width="1488.189"
   height="1052.3622"
   id="svg2"
   version="1.1"
   inkscape:version="0.48.4 r9939"
   sodipodi:docname="internal-frame.svg"
   style="enable-background:new">
  <defs
     id="defs4" />
  <sodipodi:namedview
     id="base"
     pagecolor="#ffffff"
     bordercolor="#666666"
     borderopacity="1.0"
     inkscape:pageopacity="0.0"
     inkscape:pageshadow="2"
     inkscape:zoom="0.5"
     inkscape:cx="727.91849"
     inkscape:cy="302.76256"
     inkscape:document-units="mm"
     inkscape:current-layer="g4335"
     showgrid="false"
     showguides="true"
     inkscape:guide-bbox="true"
     inkscape:snap-global="true"
     objecttolerance="20"
     inkscape:object-paths="true"
     inkscape:snap-nodes="true"
     inkscape:snap-intersection-paths="true"
     inkscape:object-nodes="true"
     inkscape:snap-smooth-nodes="true"
     inkscape:snap-midpoints="true"
     inkscape:snap-object-midpoints="true"
     inkscape:window-width="1280"
     inkscape:window-height="1000"
     inkscape:window-x="0"
     inkscape:window-y="24"
     inkscape:window-maximized="1"
     units="mm" />
  <metadata
     id="metadata7">
    <rdf:RDF>
      <cc:Work
         rdf:about="">
        <dc:format>image/svg+xml</dc:format>
        <dc:type
           rdf:resource="http://purl.org/dc/dcmitype/StillImage" />
        <dc:title />
      </cc:Work>
    </rdf:RDF>
  </metadata>
  <g
     transform="translate(0,308.26772)"
     style="display:inline"
     inkscape:label="Bottom Motor Plate"
     id="g3008"
     inkscape:groupmode="layer">
    <path
       sodipodi:nodetypes="sszzzsssszzzsssszzzsssszzzsssssssscscsscccssssssscssscssscccsssscccssccssccssccssccsssss"
       inkscape:connector-curvature="0"
       id="path3010"
       d="m 51.19752,442.20928 c 4.16413,4.16414 10.86189,4.16413 15.02602,0 0,0 55.78574,-55.78575 62.02337,-62.02337 6.23762,-6.23763 26.19793,-29.65429 43.84062,-29.65429 17.64268,0 37.60299,23.41666 43.84062,29.65429 6.23763,6.23763 62.02337,62.02337 62.02337,62.02337 4.16415,4.16416 10.88397,4.14204 15.04812,-0.0221 l 22.53904,-22.53903 c 4.16413,-4.16413 4.16412,-10.8619 0,-15.02602 0,0 -55.78643,-55.78643 -62.02337,-62.02337 -6.23693,-6.23694 -29.67227,-26.17171 -29.67639,-43.81852 -0.004,-17.6468 23.38495,-37.67207 29.67639,-43.86272 6.29146,-6.19062 63.05561,-62.04545 63.05561,-62.04545 4.19767,-4.13035 4.16414,-10.86188 0,-15.02602 L 294.0098,155.28492 c -4.16414,-4.16414 -10.82839,-4.13038 -15.02602,0 0,0 -56.76419,55.85481 -63.05562,62.04545 -6.29145,6.19062 -26.21079,29.68151 -43.86272,29.6764 -17.65192,-0.005 -37.60007,-23.45795 -43.84062,-29.6985 -6.24055,-6.24055 -64.04367,-64.04367 -64.04367,-64.04367 -4.16413,-4.16413 -10.86189,-4.16413 -15.02602,0 L 26.6161,175.80364 c -4.16414,4.16415 -4.18625,10.88398 -0.0221,15.04812 0,0 57.80242,57.80243 64.04367,64.04368 6.24124,6.24124 29.6754,26.21491 29.67639,43.86271 0.001,17.6478 -23.41666,37.603 -29.65429,43.84062 -6.23762,6.23763 -62.02337,62.02337 -62.02337,62.02337 -4.16413,4.16413 -4.16414,10.86189 0,15.02602 z m -3.7344,-18.84881 c -2.05133,-2.05134 -2.05144,-5.37317 0,-7.42461 2.05145,-2.05145 5.37328,-2.05135 7.42461,-10e-6 2.05135,2.05134 2.05145,5.37317 0,7.42462 -2.05144,2.05144 -5.37327,2.05133 -7.42461,0 z m 78.64038,-77.88908 c -0.13754,-0.11209 -0.24745,-0.24745 -0.37565,-0.37565 -2.05116,-2.05116 -2.0293,-5.39523 0.0221,-7.44671 2.05148,-2.05148 5.37347,-2.05115 7.42461,-10e-6 1.02558,1.02558 1.50258,2.36577 1.50261,3.71231 4e-5,1.34657 -0.47686,2.68658 -1.50261,3.71231 -1.02571,1.02574 -2.38556,1.56341 -3.7344,1.56889 -1.18024,0.004 -2.37385,-0.38641 -3.33666,-1.17114 z m 34.11789,-34.8692 c -3.02996,-3.02996 -4.92764,-7.23599 -4.92764,-11.86614 0,-9.26026 7.51137,-16.77167 16.77169,-16.77169 9.26032,10e-6 16.77169,7.51143 16.77169,16.77169 0,9.26027 -7.51136,16.77169 -16.77169,16.77169 -4.63015,0 -8.81408,-1.87558 -11.84405,-4.90555 z m 129.04384,112.78037 c -2.05134,-2.05134 -2.05143,-5.37317 -10e-6,-7.42462 2.05146,-2.05144 5.39539,-2.07344 7.44673,-0.0221 2.05134,2.05134 2.02934,5.39527 -0.0221,7.44671 -2.05143,2.05145 -5.37328,2.05134 -7.42462,1e-5 z M 45.5533,179.67062 c -2.05134,-2.05133 -2.05144,-5.37315 1e-5,-7.4246 2.05144,-2.05145 5.39535,-2.07345 7.44671,-0.0221 2.05134,2.05135 2.02935,5.39528 -0.0221,7.44672 -2.05145,2.05145 -5.37327,2.05135 -7.42462,0 z m 80.19661,80.1525 c -2.05114,-2.05117 -2.05147,-5.37317 1e-5,-7.42463 2.05148,-2.05148 5.37349,-2.05118 7.42463,-1e-5 1.02558,1.02558 1.52465,2.34368 1.52468,3.69023 5e-5,1.34655 -0.52104,2.73076 -1.54677,3.7565 -1.02574,1.02575 -2.36901,1.50263 -3.71233,1.5026 -1.34334,-5e-5 -2.66464,-0.49914 -3.69022,-1.52469 z m 85.64828,85.60415 c -0.13771,-0.11282 -0.26955,-0.26955 -0.39775,-0.39775 -2.05114,-2.05116 -2.05148,-5.32896 -1e-5,-7.38043 2.05149,-2.05149 5.37348,-2.05115 7.42462,0 1.02559,1.02557 1.54676,2.37357 1.54681,3.71233 2e-5,1.33873 -0.49898,2.66446 -1.52471,3.69019 -1.02574,1.02574 -2.39107,1.56895 -3.7344,1.5689 -1.17541,-4e-5 -2.35078,-0.40343 -3.31456,-1.19324 z m -1e-5,-85.25057 c -0.1377,-0.11281 -0.24745,-0.24745 -0.37565,-0.37565 -2.05115,-2.05114 -2.07357,-5.35104 -0.0221,-7.40251 2.05148,-2.05148 5.37347,-2.05116 7.42461,0 1.02558,1.02556 1.54676,2.37356 1.54681,3.71231 3e-5,1.33872 -0.49898,2.66447 -1.52471,3.6902 -1.02574,1.02573 -2.39109,1.56896 -3.7344,1.5689 -1.17542,-4e-5 -2.35079,-0.40341 -3.31457,-1.19325 z m 78.87712,-78.61827 c -2.05133,-2.05133 -2.02933,-5.39527 0.0221,-7.44671 2.05144,-2.05145 5.37327,-2.05135 7.42461,-1e-5 2.05135,2.05135 2.05144,5.37319 0,7.42462 -2.05144,2.05145 -5.39538,2.07345 -7.44672,0.0221 z"
       style="fill:#000000;stroke:#000000;stroke-width:0;stroke-miterlimit:4;stroke-dasharray:none;display:inline" />
  </g>
  <g
     inkscape:label="Bottom Main Deck"
     inkscape:groupmode="layer"
     id="g4495"
     transform="translate(0,2.2302535e-5)"
     style="display:inline">
    <path
       style="fill:#000000;stroke:#000000;stroke-width:0.10629921;stroke-miterlimit:4;stroke-dasharray:none;display:inline"
       d="m 1100.6544,513.43869 -67.3438,0.0312 c -5.8888,-10e-6 -10.5937,4.70479 -10.5937,10.59375 l -0.031,52.6875 0.031,52.71875 -0.031,52.6875 c 0,0 3.2972,34.42196 -7.5,45.21875 -10.7989,10.79861 -45.21866,7.5 -45.21866,7.5 l -52.6875,0.0312 -52.71875,0 -52.71875,-0.0312 c -5.88897,2e-5 -10.62498,4.73602 -10.625,10.625 l 0,67.34375 c 3e-5,5.88895 4.73606,10.62499 10.625,10.625 l 52.71875,0 52.6875,0 52.71875,0 c 0,0 34.41966,-3.26736 45.21866,7.53125 10.7972,10.79679 7.5,45.1875 7.5,45.1875 l 0.031,52.6875 -0.031,52.71875 0.031,52.68761 c 0,5.8887 4.7048,10.6563 10.5937,10.6561 l 67.3126,0 c 5.8889,0 10.6562,-4.7672 10.6562,-10.6561 l -0.031,-52.68761 0.031,-52.71875 -0.031,-52.6875 c 0,0 -3.2659,-34.39071 7.5312,-45.1875 10.7989,-10.79861 45.1562,-7.53125 45.1562,-7.53125 l 52.75,0 52.7188,0 52.6875,0 c 5.8889,1e-5 10.625,-4.73602 10.625,-10.625 l 0,-67.3125 c 0,-2.9445 -1.1737,-5.61111 -3.0937,-7.53125 -1.9202,-1.92012 -4.5868,-3.09375 -7.5313,-3.09375 l -52.6875,-0.0312 -52.7188,0 -52.7187,0.0312 c 0,0 -34.3886,3.23611 -45.1875,-7.5625 -10.7971,-10.79679 -7.5312,-45.1875 -7.5312,-45.1875 l 0,-52.65625 0,-52.75 0.031,-52.6875 c 0,-5.88896 -4.7361,-10.62501 -10.625,-10.625 z m -34.5625,87.25 c 0.1766,-0.0181 0.3499,0 0.5313,0 1.3597,0 2.6235,0.5264 3.5624,1.375 0.9392,0.84858 1.5532,2.01939 1.6876,3.34375 0.018,0.17658 0,0.34994 0,0.53125 0,2.90101 -2.3489,5.25 -5.25,5.25 -2.901,0 -5.25,-2.31774 -5.25,-5.21875 0,-2.7197 2.0704,-5.00913 4.7187,-5.28125 z m 0.875,60.5 c 1.3489,-0.006 2.6932,0.50558 3.7187,1.53125 2.0517,2.05131 2.0198,5.38623 -0.031,7.4375 -2.0513,2.05128 -5.3549,2.05132 -7.4062,0 -2.0516,-2.05131 -2.0513,-5.35498 0,-7.40625 1.0255,-1.02564 2.3698,-1.5565 3.7187,-1.5625 z m -21.7813,24.375 c 0.1766,-0.0179 0.35,0 0.5313,0 2.901,0 5.25,2.34907 5.25,5.25 0,2.90093 -2.349,5.25 -5.25,5.25 -2.9011,0 -5.25,-2.34907 -5.25,-5.25 0,-2.71962 2.0703,-4.9813 4.7187,-5.25 z m 42.5313,0 c 0.1766,-0.0179 0.3499,0 0.5313,0 2.9011,0 5.25,2.34907 5.25,5.25 0,2.90093 -2.3489,5.25 -5.25,5.25 -2.9011,0 -5.25,-2.34907 -5.25,-5.25 0,-2.71962 2.0703,-4.9813 4.7187,-5.25 z m -110.65621,67.125 c 0.1766,-0.0179 0.3812,0 0.5625,0 2.901,0 5.25,2.34907 5.25,5.25 0,2.90093 -2.349,5.25 -5.25,5.25 -2.901,0 -5.25,-2.34907 -5.25,-5.25 0,-2.71963 2.0388,-4.98101 4.6875,-5.25 z m 89.90621,0 c 7.321,-10e-6 13.9553,2.98654 18.75,7.78125 4.7946,4.79471 7.75,11.39758 7.75,18.71875 0,14.64234 -11.8577,26.53128 -26.5,26.53125 -14.6424,0 -26.5313,-11.88892 -26.5313,-26.53125 0,-14.64234 11.8889,-26.49996 26.5313,-26.5 z m 87.3437,0 c 0.1767,-0.0179 0.3499,0 0.5313,0 2.901,0 5.25,2.34907 5.25,5.25 0,2.90093 -2.349,5.25 -5.25,5.25 -2.9011,0 -5.25,-2.34907 -5.25,-5.25 0,-2.71963 2.0701,-4.98101 4.7187,-5.25 z m -259.24991,21.25 c 0.17656,-0.0179 0.34994,0 0.53125,0 1.4504,1e-5 2.76885,0.58138 3.71875,1.53125 0.9499,0.94987 1.5625,2.26824 1.5625,3.71875 0,2.90101 -2.38035,5.28124 -5.28125,5.28125 -2.901,-10e-6 -5.25,-2.38024 -5.25,-5.28125 0,-2.7197 2.07033,-4.9813 4.71875,-5.25 z m 59.15625,0 c 1.3433,-10e-6 2.69305,0.5056 3.71875,1.53125 2.0513,2.05131 2.0512,5.38624 0,7.4375 -2.0513,2.05128 -5.3862,2.05133 -7.4375,0 -2.0514,-2.05131 -2.0513,-5.3862 0,-7.4375 1.0256,-1.02563 2.37545,-1.53124 3.71875,-1.53125 z m 225.49996,0 c 1.3489,-0.006 2.6932,0.47433 3.7187,1.5 2.0517,2.05131 2.0197,5.41747 -0.031,7.46875 -2.0513,2.05127 -5.3861,2.05132 -7.4375,0 -2.0514,-2.05132 -2.0512,-5.38623 0,-7.4375 1.0257,-1.02565 2.4011,-1.52525 3.75,-1.53125 z m 58.125,0 c 0.1766,-0.0179 0.3499,0 0.5313,0 1.4504,0 2.7687,0.58138 3.7187,1.53125 0.9498,0.94987 1.5312,2.26824 1.5313,3.71875 0,2.90101 -2.3489,5.28125 -5.25,5.28125 -2.901,0 -5.25,-2.38024 -5.25,-5.28125 0,-2.7197 2.0704,-4.98131 4.7187,-5.25 z m -260.74996,21.25 c 0.17656,-0.0179 0.34994,0 0.53125,0 2.901,0 5.25,2.34907 5.25,5.25 0,2.90093 -2.349,5.25 -5.25,5.25 -2.901,0 -5.25,-2.34907 -5.25,-5.25 0,-2.71962 2.07033,-4.9813 4.71875,-5.25 z m 177.21866,0 c 0.1766,-0.0179 0.35,0 0.5313,0 2.901,0 5.25,2.34907 5.25,5.25 0,2.90093 -2.349,5.25 -5.25,5.25 -2.9011,0 -5.25,-2.34907 -5.25,-5.25 0,-2.71962 2.0703,-4.9813 4.7187,-5.25 z m -109.125,67.125 c 0.1767,-0.0179 0.3499,0 0.5313,0 2.901,0 5.25,2.34907 5.25,5.25 0,2.90093 -2.349,5.25 -5.25,5.25 -2.9011,0 -5.25,-2.34907 -5.25,-5.25 0,-2.71963 2.0701,-4.98101 4.7187,-5.25 z m 42.5,0 c 0.1767,-0.0179 0.3812,0 0.5626,0 2.9011,0 5.25,2.34907 5.25,5.25 0,2.90093 -2.3489,5.25 -5.25,5.25 -2.9011,0 -5.25,-2.34907 -5.25,-5.25 0,-2.71963 2.0388,-4.98101 4.6874,-5.25 z m -20.7187,24.375 c 1.3433,0 2.6618,0.50559 3.6875,1.53125 2.0513,2.05132 2.0513,5.35497 0,7.40625 -2.0513,2.05129 -5.3552,2.05131 -7.4062,0 -2.0516,-2.05133 -2.0516,-5.35497 0,-7.40625 1.0255,-1.02564 2.3754,-1.53125 3.7187,-1.53125 z m -0.875,58.875 c 0.1766,-0.0179 0.3499,0 0.5313,0 1.3597,0 2.6235,0.5264 3.5624,1.375 0.9392,0.84857 1.5532,2.01939 1.6876,3.34375 0.018,0.17658 0,0.34994 0,0.53125 0,2.90102 -2.3489,5.25001 -5.25,5.25 -2.901,0 -5.25,-2.34899 -5.25,-5.25 0,-2.7197 2.0704,-4.98131 4.7187,-5.25 z"
       id="path4497"
       inkscape:connector-curvature="0" />
  </g>
  <g
     inkscape:label="Middle Main Deck - Lower"
     inkscape:groupmode="layer"
     id="g3012"
     transform="translate(0,2.2302535e-5)"
     style="display:inline">
    <path
       style="fill:#000000;stroke:#000000;stroke-width:0.10629921;stroke-miterlimit:4;stroke-dasharray:none;display:inline"
       d="m 912.25003,61.836565 -67.3438,0.0312 c -5.889,-10e-6 -10.5938,4.70479 -10.5938,10.59375 l -0.031,52.687505 0.031,52.71875 -0.031,52.6875 c 0,0 3.2971,34.42196 -7.5,45.21875 -10.7989,10.79861 -45.2187,7.5 -45.2187,7.5 l -52.68753,0.0312 -52.71875,0 -52.71875,-0.0312 c -5.88897,2e-5 -10.62498,4.73602 -10.625,10.625 l 0,67.34375 c 3e-5,5.88895 4.73606,10.62499 10.625,10.625 l 52.71875,0 52.6875,0 52.71878,0 c 0,0 34.4198,-3.26736 45.2187,7.53125 10.7971,10.79679 7.5,45.1875 7.5,45.1875 l 0.031,52.6875 -0.031,52.71875 0.031,52.68757 c 0,5.8888 4.7047,10.6564 10.5938,10.6563 l 67.3125,0 c 5.889,0 10.6563,-4.7673 10.6563,-10.6563 l -0.031,-52.68752 0.031,-52.71875 -0.031,-52.6875 c 0,0 -3.2659,-34.39071 7.53117,-45.1875 10.7989,-10.79861 45.1563,-7.53125 45.1563,-7.53125 l 52.75,0 52.7187,0 52.6875,0 c 5.889,1e-5 10.625,-4.73602 10.625,-10.625 l 0,-67.3125 c 0,-2.9445 -1.1736,-5.61111 -3.0937,-7.53125 -1.9202,-1.92012 -4.5868,-3.09375 -7.5313,-3.09375 l -52.6875,-0.0312 -52.7187,0 c -17.5729,0.0104 -35.1459,0.0208 -52.7188,0.0312 0,0 -34.3886,3.23611 -45.1875,-7.5625 -10.79707,-10.79679 -7.53117,-45.1875 -7.53117,-45.1875 0,-17.55209 0,-35.10417 0,-52.65625 l 0,-52.75 0.031,-52.687505 c 0,-5.88896 -4.7361,-10.62501 -10.625,-10.625 z m -54.9375,172.125005 c 2.901,0 5.25,2.34907 5.25,5.25 0,2.90093 -2.349,5.25 -5.25,5.25 -2.901,0 -5.25,-2.34907 -5.25,-5.25 0,-2.90093 2.349,-5.25 5.25,-5.25 z m 42.5312,0 c 2.901,0 5.25,2.34907 5.25,5.25 0,2.90093 -2.349,5.25 -5.25,5.25 -2.901,0 -5.25,-2.34907 -5.25,-5.25 0,-2.90093 2.349,-5.25 5.25,-5.25 z m -111.1875,67.125 c 0.1766,-0.0179 0.3812,0 0.5625,0 2.901,0 5.25,2.34907 5.25,5.25 0,2.90093 -2.349,5.25 -5.25,5.25 -2.901,0 -5.25,-2.34907 -5.25,-5.25 0,-2.71963 2.0388,-4.98101 4.6875,-5.25 z m 89.9063,0 c 7.3211,-10e-6 13.9553,2.98654 18.75,7.78125 4.7947,4.79471 7.75,11.39758 7.75,18.71875 0,14.64234 -11.8577,26.53128 -26.5,26.53125 -14.6424,0 -26.5313,-11.88892 -26.5313,-26.53125 0,-14.64234 11.889,-26.49996 26.5313,-26.5 z m 87.34367,0 c 0.1766,-0.0179 0.35,0 0.5313,0 2.901,0 5.25,2.34907 5.25,5.25 0,2.90093 -2.349,5.25 -5.25,5.25 -2.901,0 -5.25,-2.34907 -5.25,-5.25 0,-2.71963 2.07,-4.98101 4.7187,-5.25 z m -176.68747,42.5 c 2.901,0 5.25,2.34907 5.25,5.25 0,2.90093 -2.349,5.25 -5.25,5.25 -2.901,0 -5.25,-2.34907 -5.25,-5.25 0,-2.90093 2.349,-5.25 5.25,-5.25 z m 177.21877,0 c 2.901,0 5.25,2.34907 5.25,5.25 0,2.90093 -2.349,5.25 -5.25,5.25 -2.901,0 -5.25,-2.34907 -5.25,-5.25 0,-2.90093 2.349,-5.25 5.25,-5.25 z m -109.65627,67.125 c 0.1766,-0.0179 0.35,0 0.5313,0 2.901,0 5.25,2.34907 5.25,5.25 0,2.90093 -2.349,5.25 -5.25,5.25 -2.901,0 -5.25,-2.34907 -5.25,-5.25 0,-2.71963 2.07,-4.98101 4.7187,-5.25 z m 42.5,0 c 0.1766,-0.0179 0.3812,0 0.5625,0 2.901,0 5.25,2.34907 5.25,5.25 0,2.90093 -2.349,5.25 -5.25,5.25 -2.901,0 -5.25,-2.34907 -5.25,-5.25 0,-2.71963 2.0388,-4.98101 4.6875,-5.25 z"
       id="path3014"
       inkscape:connector-curvature="0"
       sodipodi:nodetypes="ccccccsccccssscccscccccsccccscccssssccccscccccssssssssssscssssssssssscsssssssssssssscssssccssssc" />
  </g>
  <g
     style="display:inline"
     transform="translate(0,2.2302535e-5)"
     id="g4335"
     inkscape:groupmode="layer"
     inkscape:label="Middle Main Deck - Upper">
    <path
       sodipodi:nodetypes="ccccccsccccssscccscccccsccccscccssssccccscccccssssssssssscssssssssssscsssssssssssssscssssccssssc"
       inkscape:connector-curvature="0"
       id="path4337"
       d="m 294.0411,-67.947457 -67.3438,0.0312 c -5.889,-1e-5 -10.5938,4.70479 -10.5938,10.59375 l -0.031,52.6875047 0.031,52.7187503 -0.031,52.687502 c 0,0 3.2971,34.42196 -7.5,45.21875 -10.7989,10.79861 -45.2187,7.5 -45.2187,7.5 l -52.68753,0.0312 -52.71875,0 L 5.22877,153.49 c -5.88897,2e-5 -10.62498,4.73602 -10.625,10.625 l 0,67.34375 c 3e-5,5.88895 4.73606,10.62499 10.625,10.625 l 52.71875,0 52.6875,0 52.71878,0 c 0,0 34.4198,-3.26736 45.2187,7.53125 10.7971,10.79679 7.5,45.1875 7.5,45.1875 l 0.031,52.6875 -0.031,52.71875 0.031,52.68757 c 0,5.8888 4.7047,10.6564 10.5938,10.6563 l 67.3125,0 c 5.889,0 10.6563,-4.7673 10.6563,-10.6563 l -0.031,-52.68752 0.031,-52.71875 -0.031,-52.6875 c 0,0 -3.2659,-34.39071 7.53117,-45.1875 10.7989,-10.79861 45.1563,-7.53125 45.1563,-7.53125 l 52.75,0 52.7187,0 52.6875,0 c 5.889,1e-5 10.625,-4.73602 10.625,-10.625 l 0,-67.3125 c 0,-2.9445 -1.1736,-5.61111 -3.0937,-7.53125 -1.9202,-1.92012 -4.5868,-3.09375 -7.5313,-3.09375 l -52.6875,-0.0312 -52.7187,0 c -17.5729,0.0104 -35.1459,0.0208 -52.7188,0.0312 0,0 -34.3886,3.23611 -45.1875,-7.5625 -10.79707,-10.79679 -7.53117,-45.1875 -7.53117,-45.1875 0,-17.552092 0,-35.104172 0,-52.656252 l 0,-52.7500003 0.031,-52.6875047 c 0,-5.88896 -4.7361,-10.62501 -10.625,-10.625 z M 239.1036,104.17755 c 2.901,0 5.25,2.34907 5.25,5.25 0,2.90093 -2.349,5.25 -5.25,5.25 -2.901,0 -5.25,-2.34907 -5.25,-5.25 0,-2.90093 2.349,-5.25 5.25,-5.25 z m 42.5312,0 c 2.901,0 5.25,2.34907 5.25,5.25 0,2.90093 -2.349,5.25 -5.25,5.25 -2.901,0 -5.25,-2.34907 -5.25,-5.25 0,-2.90093 2.349,-5.25 5.25,-5.25 z m -111.1875,67.125 c 0.1766,-0.0179 0.3812,0 0.5625,0 2.901,0 5.25,2.34907 5.25,5.25 0,2.90093 -2.349,5.25 -5.25,5.25 -2.901,0 -5.25,-2.34907 -5.25,-5.25 0,-2.71963 2.0388,-4.98101 4.6875,-5.25 z m 89.9063,0 c 7.3211,-1e-5 13.9553,2.98654 18.75,7.78125 4.7947,4.79471 7.75,11.39758 7.75,18.71875 0,14.64234 -11.8577,26.53128 -26.5,26.53125 -14.6424,0 -26.5313,-11.88892 -26.5313,-26.53125 0,-14.64234 11.889,-26.49996 26.5313,-26.5 z m 87.34367,0 c 0.1766,-0.0179 0.35,0 0.5313,0 2.901,0 5.25,2.34907 5.25,5.25 0,2.90093 -2.349,5.25 -5.25,5.25 -2.901,0 -5.25,-2.34907 -5.25,-5.25 0,-2.71963 2.07,-4.98101 4.7187,-5.25 z m -176.68747,42.5 c 2.901,0 5.25,2.34907 5.25,5.25 0,2.90093 -2.349,5.25 -5.25,5.25 -2.901,0 -5.25,-2.34907 -5.25,-5.25 0,-2.90093 2.349,-5.25 5.25,-5.25 z m 177.21877,0 c 2.901,0 5.25,2.34907 5.25,5.25 0,2.90093 -2.349,5.25 -5.25,5.25 -2.901,0 -5.25,-2.34907 -5.25,-5.25 0,-2.90093 2.349,-5.25 5.25,-5.25 z m -109.65627,67.125 c 0.1766,-0.0179 0.35,0 0.5313,0 2.901,0 5.25,2.34907 5.25,5.25 0,2.90093 -2.349,5.25 -5.25,5.25 -2.901,0 -5.25,-2.34907 -5.25,-5.25 0,-2.71963 2.07,-4.98101 4.7187,-5.25 z m 42.5,0 c 0.1766,-0.0179 0.3812,0 0.5625,0 2.901,0 5.25,2.34907 5.25,5.25 0,2.90093 -2.349,5.25 -5.25,5.25 -2.901,0 -5.25,-2.34907 -5.25,-5.25 0,-2.71963 2.0388,-4.98101 4.6875,-5.25 z"
       style="fill:#000000;stroke:#000000;stroke-width:0.10629921;stroke-miterlimit:4;stroke-dasharray:none;display:inline" />
  </g>
  <g
     inkscape:label="Top Main Deck"
     inkscape:groupmode="layer"
     id="layer1"
     transform="translate(0,2.2302535e-5)"
     style="display:inline">
    <path
       style="fill:#000000;stroke:#000000;stroke-width:0.10629921;stroke-miterlimit:4;stroke-dasharray:none;display:inline"
       d="m 366.30226,639.12406 0.031,67.34374 c 0,5.88897 4.7048,10.59374 10.59371,10.59375 l 52.68751,0.0312 52.71875,-0.0312 52.6875,0.0312 c 0,0 34.42197,-3.29708 45.21875,7.50002 10.79862,10.79889 7.5,45.21873 7.5,45.21873 l 0.0312,52.68749 10e-6,52.71876 -0.0312,52.71877 c 2e-5,5.8889 4.73603,10.625 10.625,10.625 l 67.34375,0 c 5.889,-10e-5 10.625,-4.7361 10.625,-10.625 l 0,-52.71877 0,-52.6875 0,-52.71874 c 0,0 -3.2673,-34.41985 7.5313,-45.21875 10.79681,-10.7971 45.1874,-7.5 45.1874,-7.5 l 52.6875,-0.0312 52.71881,0.0312 52.68746,-0.0312 c 5.8888,-2e-5 10.6564,-4.7047 10.6563,-10.59376 l 0,-67.3125 c 0,-5.88899 -4.7673,-10.65627 -10.6563,-10.65624 l -52.68746,0.0312 -52.7187,-0.0312 -52.6875,0.0312 c 0,0 -34.3907,3.26583 -45.1875,-7.53125 -10.7986,-10.7989 -7.5313,-45.15626 -7.5313,-45.15626 l 0,-52.75 0,-52.71876 0,-52.68746 c 0,-5.889 -4.73601,-10.625 -10.625,-10.625 l -67.31246,0 c -2.94449,0 -5.61112,1.1736 -7.53126,3.0937 -1.92012,1.92011 -3.09375,4.5868 -3.09374,7.5313 l -0.0312,52.6875 -10e-6,52.71874 0.0312,52.71875 c 0,0 3.23611,34.38859 -7.56251,45.18749 -10.79679,10.79709 -45.1875,7.53126 -45.1875,7.53126 l -52.65624,0 -52.75001,10e-6 -52.68744,-0.0312 c -5.88901,0 -10.6251,4.73602 -10.62501,10.625 z m 87.24999,34.03124 c 0,-1.35982 0.52639,-2.62358 1.375,-3.56249 0.84857,-0.93894 2.01938,-1.55301 3.34375,-1.68751 0.17657,-0.0179 0.34993,-10e-6 0.53125,0 2.901,-10e-6 5.24998,2.34905 5.24998,5.25002 10e-6,2.90093 -2.31773,5.24998 -5.21873,5.24998 -2.901,0 -5.28125,-2.34905 -5.28125,-5.24999 z m 31.8125,10e-6 c 1.8e-4,-2.25614 0.84373,-4.5 2.5625,-6.21875 1.71875,-1.71875 3.96893,-2.57012 6.21875,-2.5625 2.24981,0.008 4.49925,0.87428 6.21874,2.59374 3.43899,3.439 3.46871,8.99999 0.0312,12.4375 -3.43751,3.43749 -9.02979,3.43901 -12.46876,10e-6 -1.71948,-1.71952 -2.56269,-3.99388 -2.5625,-6.25001 z m 53.06249,20.90623 c -10e-6,-2.90098 2.34906,-5.25 5.25,-5.25 2.90093,0 5.25001,2.34902 5.25,5.25 0,2.90101 -2.34907,5.25001 -5.25,5.25 -2.90093,10e-6 -5.24999,-2.34898 -5.25,-5.25 z m 2e-5,-42.53124 c -1e-5,-2.901 2.34905,-5.25 5.24998,-5.25 2.90093,0 5.25,2.349 5.25,5.25 0,2.90099 -2.34907,5.25 -5.25,5.25 -2.90093,-10e-6 -5.24998,-2.34901 -5.24998,-5.25 z m 67.12499,111.1875 c -0.0179,-0.17658 0,-0.38119 0,-0.56249 -10e-6,-2.90101 2.34906,-5.25001 5.25,-5.25 2.90092,-2e-5 5.24999,2.34898 5.25,5.24999 -2e-5,2.901 -2.34906,5.25 -5.25001,5.25001 -2.71962,-10e-6 -4.98101,-2.0388 -5.24999,-4.68751 z m 0,-89.90625 c -2e-5,-7.32117 2.98653,-13.95529 7.78125,-18.74999 4.79471,-4.79471 11.39758,-7.75 18.71873,-7.75001 14.64232,-10e-6 26.53132,11.85764 26.53122,26.5 0,14.64234 -11.8889,26.53124 -26.53121,26.53126 -14.64235,-2e-5 -26.49995,-11.88896 -26.50001,-26.53126 z m 0,-87.34374 c -0.0179,-0.17659 0,-0.34995 0,-0.53125 -10e-6,-2.90101 2.34906,-5.25001 5.25,-5.25001 2.90092,-10e-6 5.24999,2.34899 5.25,5.25 -2e-5,2.901 -2.34906,5.25 -5.25001,5.25001 -2.71962,-10e-6 -4.981,-2.07005 -5.24999,-4.71875 z m 17.87499,225.06249 c 1.9e-4,-2.25613 0.87498,-4.53125 2.59375,-6.25001 1.71875,-1.71875 3.99237,-2.59355 6.25,-2.59374 2.25764,-1.9e-4 4.46799,0.87425 6.1875,2.59374 3.43898,3.439 3.4375,9 0,12.4375 -3.4375,3.43749 -9.02976,3.47023 -12.46875,0.0312 -1.7195,-1.7195 -2.56269,-3.96262 -2.5625,-6.21875 z m 0,-275.4375 c -0.005,-2.2506 0.84374,-4.49999 2.56251,-6.21874 1.71875,-1.71875 3.99236,-2.5936 6.25001,-2.59376 2.25761,-1.9e-4 4.49924,0.87426 6.21873,2.59375 3.43899,3.43901 3.43752,9.03127 0,12.46874 -3.43749,3.43751 -8.9985,3.37644 -12.4375,-0.0625 -1.71949,-1.7195 -2.58842,-3.93689 -2.59375,-6.1875 z m 3.375,309.09375 c 10e-6,-1.45046 0.58138,-2.76886 1.53124,-3.71875 0.94988,-0.94988 2.26826,-1.56249 3.71877,-1.5625 2.901,0 5.28123,2.3803 5.28124,5.28125 -2e-5,2.90093 -2.38024,5.24999 -5.28125,5.25 -2.901,10e-6 -5.24999,-2.34907 -5.25,-5.25 z m 10e-6,-342.78125 c -10e-6,-1.45048 0.58137,-2.76887 1.53125,-3.71874 0.94986,-0.94989 2.26823,-1.53127 3.71875,-1.53126 2.901,-1e-5 5.28124,2.34905 5.28124,5.24999 10e-6,2.90093 -2.38023,5.24999 -5.28124,5.25 -2.90104,-2e-5 -5.25001,-2.34908 -5.25,-5.25 z m 21.25,260.74999 c 0,-2.90099 2.3491,-5.24998 5.25,-5.25 2.9009,2e-5 5.25,2.34901 5.25,5.25002 0,2.90099 -2.3491,5.25 -5.25,5.25 -2.9009,0 -5.25,-2.34901 -5.25,-5.25002 z m 0,-177.21875 c 0,-2.90099 2.3491,-5.24999 5.25,-5.25 2.9009,10e-6 5.25,2.34901 5.25,5.25002 0,2.90099 -2.3491,5.25 -5.25,5.25 -2.9009,0 -5.25,-2.34901 -5.25,-5.25002 z m 67.125,109.65626 c -0.018,-0.17658 0,-0.34995 0,-0.53125 0,-2.90099 2.3491,-5.25001 5.25,-5.25 2.9009,-10e-6 5.25,2.349 5.25,5.25 0,2.90099 -2.3491,5.25 -5.25,5.25 -2.7196,0 -4.981,-2.07003 -5.25,-4.71875 z m 0,-42.5 c -0.018,-0.17658 0,-0.38119 0,-0.56251 0,-2.90098 2.3491,-5.24999 5.25,-5.24999 2.9009,0 5.25,2.34901 5.25,5.24999 0,2.90102 -2.3491,5.25001 -5.25,5.25 -2.7196,0 -4.981,-2.03878 -5.25,-4.68749 z m 45.9687,20.68751 c 0,-2.25061 0.8438,-4.46877 2.5625,-6.18752 1.7188,-1.71875 3.9924,-2.59357 6.25,-2.59374 2.25769,-2.1e-4 4.49929,0.87426 6.2188,2.59375 3.439,3.43899 3.4375,9 0,12.4375 -3.4375,3.4375 -8.9672,3.43901 -12.4062,10e-6 -1.7195,-1.71951 -2.6197,-3.9994 -2.6251,-6.25 z m 37.2813,0.37501 c 0,-1.35984 0.5264,-2.6236 1.375,-3.56252 0.8486,-0.93894 2.0194,-1.55301 3.3437,-1.68749 0.1766,-0.0179 0.34999,-10e-6 0.5313,0 2.901,-2e-5 5.25,2.34905 5.25,5.25 0,2.90094 -2.349,5.24998 -5.25,5.24998 -2.901,0 -5.25,-2.34904 -5.25,-5.24997 z"
       id="rect3875"
       inkscape:connector-curvature="0"
       sodipodi:nodetypes="ccccccsccccssscccscccccsccccscccssssccccsccccccscccssscscsssccsssssssssscsssscsssssscssssccssssscccsssssccscsscsscssssssssssssscssssccssssccscssscscccsss" />
  </g>
  <g
     inkscape:groupmode="layer"
     id="layer5"
     inkscape:label="Flight Control Deck"
     style="display:inline"
     transform="translate(0,308.26772)">
    <path
       style="fill:#000000;stroke:#000000;stroke-width:0.10629921;stroke-miterlimit:4;stroke-dasharray:none"
       d="m 554.02096,279.81381 c 4.11999,0 7.43751,-3.31752 7.43752,-7.43752 l 0,-208.218737 c -10e-6,-4.11998 -3.31754,-7.43751 -7.43752,-7.43752 l -208.25001,10e-6 c -4.11998,-10e-6 -7.43748,3.31753 -7.43749,7.43751 l 0,208.218747 c 0,4.11998 3.31753,7.43751 7.43751,7.43751 l 208.24999,0 z m -201.49998,-4.84376 c -4.86349,-1e-5 -8.81252,-3.95116 -8.81252,-8.8125 0,-4.86136 3.94903,-8.78126 8.81251,-8.78126 4.86347,1e-5 8.8125,3.91988 8.81251,8.78125 -1e-5,4.86134 -3.94903,8.81251 -8.8125,8.81249 z m 194.75,-0.5 c -4.86347,0 -8.81252,-3.95115 -8.81252,-8.81249 0,-4.86136 3.94906,-8.81251 8.81251,-8.8125 4.86347,-10e-6 8.81251,3.95112 8.81248,8.8125 3e-5,4.86134 -3.94901,8.81249 -8.81247,8.81249 z m -17.65627,-21.21876 c -2.90099,-1e-5 -5.24998,-2.34905 -5.24998,-5.25 0,-2.90093 2.349,-5.24999 5.24998,-5.24998 2.90101,0 5.25001,2.34904 5.25,5.24998 1e-5,2.90096 -2.34899,5.25 -5.25,5.25 z m -159.43749,-1e-5 c -2.901,1e-5 -5.25002,-2.34903 -5.25,-5.25 -2e-5,-2.90093 2.349,-5.24997 5.25,-5.24997 2.901,-2e-5 5.24998,2.34904 5.25,5.24997 0,2.90095 -2.34899,5.25001 -5.25,5.25 z m 127.24999,-31.87498 -95.06248,0 c -3.08727,0 -5.56251,-2.47554 -5.56252,-5.56251 l 0,-95.06249 c 0,-3.08694 2.47526,-5.56251 5.5625,-5.56251 l 95.0625,0 c 3.08727,-1e-5 5.5625,2.47557 5.56252,5.56251 l -2e-5,95.06249 c -10e-6,3.08697 -2.47523,5.56251 -5.5625,5.56251 z m 32.1875,-127.562507 c -2.90099,0 -5.24998,-2.34905 -5.24998,-5.24999 -10e-6,-2.90095 2.34897,-5.28126 5.24999,-5.28124 2.90101,-1e-5 5.25,2.3803 5.25,5.28125 10e-6,2.90093 -2.34898,5.25 -5.25,5.25 z m -159.43748,0 c -2.90102,0 -5.25003,-2.34906 -5.25,-5.24999 0,-2.90095 2.34898,-5.28126 5.24999,-5.28124 2.90101,0 5.25001,2.38032 5.25001,5.28126 0,2.90095 -2.349,5.25 -5.25,5.25 z m 177.09374,-14.12501 c -4.86346,0 -8.8125,-3.91989 -8.8125,-8.78124 0,-4.86137 3.94906,-8.81252 8.81251,-8.81251 4.86347,-1e-5 8.81251,3.95114 8.81251,8.8125 10e-6,4.86135 -3.94904,8.78125 -8.81251,8.78125 z m -194.75,0 c -4.86346,0 -8.81251,-3.91988 -8.8125,-8.78124 0,-4.86136 3.94904,-8.81251 8.8125,-8.81251 4.86346,0 8.81252,3.95115 8.81249,8.81252 10e-6,4.86132 -3.94903,8.78124 -8.81249,8.78123 z"
       id="rect4038"
       inkscape:connector-curvature="0" />
  </g>
  <g
     inkscape:label="Flight Controller"
     id="g3989"
     inkscape:groupmode="layer"
     style="display:inline"
     transform="translate(0,308.26772)">
    <g
       id="g4204"
       transform="translate(-632.37408,7.5697075)">
      <path
         style="fill:#000000;stroke:#000000;stroke-width:0.10629921;stroke-miterlimit:4;stroke-dasharray:none"
         d="m 93.4375,488.125 c -3.925984,0 -7.0625,3.16777 -7.0625,7.09375 l 0,162.96875 c 0,3.92598 3.136516,7.09375 7.0625,7.09375 l 163,0 c 3.92598,0 7.09375,-3.16777 7.09375,-7.09375 l 0,-162.96875 c 0,-3.92598 -3.16777,-7.09375 -7.09375,-7.09375 l -163,0 z m 1.78125,3.59375 c 2.900998,0 5.25,2.34906 5.25,5.25 0,2.90094 -2.349002,5.25 -5.25,5.25 -2.900998,0 -5.25,-2.34906 -5.25,-5.25 0,-2.90094 2.349002,-5.25 5.25,-5.25 z m 159.4375,0 c 2.901,0 5.25,2.34906 5.25,5.25 0,2.90094 -2.349,5.25 -5.25,5.25 -2.901,0 -5.25,-2.34906 -5.25,-5.25 0,-2.90094 2.349,-5.25 5.25,-5.25 z M 94.6875,651.1875 c 0.176581,-0.0179 0.349938,0 0.53125,0 2.900998,0 5.25,2.34906 5.25,5.25 0,2.90094 -2.349002,5.25 -5.25,5.25 -2.900998,0 -5.25,-2.34906 -5.25,-5.25 0,-2.71963 2.070033,-4.98101 4.71875,-5.25 z m 159.4375,0 c 0.17658,-0.0179 0.34994,0 0.53125,0 2.901,0 5.25,2.34906 5.25,5.25 0,2.90094 -2.349,5.25 -5.25,5.25 -2.901,0 -5.25,-2.34906 -5.25,-5.25 0,-2.71963 2.07003,-4.98101 4.71875,-5.25 z"
         transform="translate(632.37408,-7.5697075)"
         id="rect3991"
         inkscape:connector-curvature="0" />
      <text
         sodipodi:linespacing="125%"
         id="text4018"
         y="546.78796"
         x="808.23932"
         style="font-size:40px;font-style:normal;font-weight:normal;line-height:125%;letter-spacing:0px;word-spacing:0px;fill:#000000;fill-opacity:1;stroke:none;font-family:Sans"
         xml:space="preserve"><tspan
           style="font-size:24px;font-style:normal;font-variant:normal;font-weight:normal;font-stretch:normal;text-align:center;text-anchor:middle;fill:#808000;font-family:FreeMono;-inkscape-font-specification:FreeMono"
           y="546.78796"
           x="808.23932"
           id="tspan4020"
           sodipodi:role="line">Crius</tspan><tspan
           style="font-size:24px;font-style:normal;font-variant:normal;font-weight:normal;font-stretch:normal;text-align:center;text-anchor:middle;fill:#808000;font-family:FreeMono;-inkscape-font-specification:FreeMono"
           id="tspan4022"
           y="576.78796"
           x="808.23932"
           sodipodi:role="line">AIOP</tspan><tspan
           style="font-size:24px;font-style:normal;font-variant:normal;font-weight:normal;font-stretch:normal;text-align:center;text-anchor:middle;fill:#808000;font-family:FreeMono;-inkscape-font-specification:FreeMono"
           id="tspan4024"
           y="606.78796"
           x="808.23932"
           sodipodi:role="line">v2.0</tspan></text>
    </g>
  </g>
  <g
     inkscape:groupmode="layer"
     id="layer2"
     inkscape:label="Top Motor Plate"
     style="display:inline"
     transform="translate(0,308.26772)">
    <path
       style="fill:#000000;stroke:#000000;stroke-width:0;stroke-miterlimit:4;stroke-dasharray:none;display:inline"
       d="m 1186.2691,364.00576 c 4.1642,4.16414 10.8619,4.16413 15.026,0 0,0 55.7858,-55.78575 62.0234,-62.02337 6.2376,-6.23763 26.1979,-29.65429 43.8406,-29.65429 17.6427,0 37.603,23.41666 43.8407,29.65429 6.2376,6.23763 62.0233,62.02337 62.0233,62.02337 4.1642,4.16416 10.884,4.14204 15.0481,-0.0221 l 22.5391,-22.53903 c 4.1641,-4.16413 4.1641,-10.8619 0,-15.02602 0,0 -55.7864,-55.78643 -62.0234,-62.02337 -6.2369,-6.23694 -29.6723,-26.17171 -29.6764,-43.81852 0,-17.6468 23.385,-37.67207 29.6764,-43.86272 6.2915,-6.19062 63.0556,-62.04545 63.0556,-62.04545 4.1977,-4.13035 4.1642,-10.86188 0,-15.026018 l -22.5611,-22.56113 c -4.1641,-4.16414 -10.8284,-4.13038 -15.026,0 0,0 -56.7642,55.854808 -63.0556,62.045448 -6.2915,6.19062 -26.2108,29.68151 -43.8628,29.6764 -17.6519,-0.005 -37.6,-23.45795 -43.8406,-29.6985 -6.2405,-6.24055 -64.0437,-64.043668 -64.0437,-64.043668 -4.1641,-4.16413 -10.8618,-4.16413 -15.026,0 l -22.539,22.53904 c -4.1641,4.164148 -4.1862,10.883978 -0.022,15.048118 0,0 57.8024,57.80243 64.0437,64.04368 6.2412,6.24124 29.6754,26.21491 29.6764,43.86271 10e-4,17.6478 -23.4167,37.603 -29.6543,43.84062 -6.2376,6.23763 -62.0234,62.02337 -62.0234,62.02337 -4.1641,4.16413 -4.1641,10.86189 0,15.02602 z m -3.7344,-18.84881 c -2.0513,-2.05134 -2.0514,-5.37317 0,-7.42461 2.0515,-2.05145 5.3733,-2.05135 7.4246,-1e-5 2.0514,2.05134 2.0515,5.37317 0,7.42462 -2.0514,2.05144 -5.3732,2.05133 -7.4246,0 z m 78.6404,-77.88908 c -0.1375,-0.11209 -0.2474,-0.24745 -0.3756,-0.37565 -2.0512,-2.05116 -2.0293,-5.39523 0.022,-7.44671 2.0515,-2.05148 5.3735,-2.05115 7.4247,-1e-5 1.0255,1.02558 1.5025,2.36577 1.5026,3.71231 0,1.34657 -0.4769,2.68658 -1.5026,3.71231 -1.0257,1.02574 -2.3856,1.56341 -3.7344,1.56889 -1.1803,0.004 -2.3739,-0.38641 -3.3367,-1.17114 z m 34.1179,-34.8692 c -3.03,-3.02996 -4.9276,-7.23599 -4.9276,-11.86614 0,-9.26026 7.5113,-16.77167 16.7716,-16.77169 9.2604,1e-5 16.7717,7.51143 16.7717,16.77169 0,9.26027 -7.5113,16.77169 -16.7717,16.77169 -4.6301,0 -8.814,-1.87558 -11.844,-4.90555 z m 129.0438,112.78037 c -2.0513,-2.05134 -2.0514,-5.37317 0,-7.42462 2.0515,-2.05144 5.3954,-2.07344 7.4468,-0.0221 2.0513,2.05134 2.0293,5.39527 -0.022,7.44671 -2.0515,2.05145 -5.3733,2.05134 -7.4247,10e-6 z M 1180.6249,101.4671 c -2.0513,-2.051328 -2.0514,-5.373148 0,-7.424598 2.0515,-2.05145 5.3954,-2.07345 7.4467,-0.0221 2.0514,2.05135 2.0294,5.39528 -0.022,7.446718 -2.0514,2.05145 -5.3732,2.05135 -7.4246,0 z m 80.1966,80.1525 c -2.0511,-2.05117 -2.0515,-5.37317 0,-7.42463 2.0515,-2.05148 5.3735,-2.05118 7.4247,-1e-5 1.0255,1.02558 1.5246,2.34368 1.5246,3.69023 10e-5,1.34655 -0.521,2.73076 -1.5467,3.7565 -1.0258,1.02575 -2.3691,1.50263 -3.7124,1.5026 -1.3433,-5e-5 -2.6646,-0.49914 -3.6902,-1.52469 z m 85.6483,85.60415 c -0.1377,-0.11282 -0.2696,-0.26955 -0.3978,-0.39775 -2.0511,-2.05116 -2.0514,-5.32896 0,-7.38043 2.0515,-2.05149 5.3735,-2.05115 7.4247,0 1.0255,1.02557 1.5467,2.37357 1.5468,3.71233 0,1.33873 -0.499,2.66446 -1.5247,3.69019 -1.0258,1.02574 -2.3911,1.56895 -3.7344,1.5689 -1.1755,-4e-5 -2.3508,-0.40343 -3.3146,-1.19324 z m 0,-85.25057 c -0.1377,-0.11281 -0.2475,-0.24745 -0.3757,-0.37565 -2.0511,-2.05114 -2.0735,-5.35104 -0.022,-7.40251 2.0515,-2.05148 5.3735,-2.05116 7.4246,0 1.0256,1.02556 1.5468,2.37356 1.5468,3.71231 10e-5,1.33872 -0.4989,2.66447 -1.5247,3.6902 -1.0257,1.02573 -2.391,1.56896 -3.7344,1.5689 -1.1754,-4e-5 -2.3507,-0.40341 -3.3145,-1.19325 z m 78.8771,-78.61827 c -2.0513,-2.05133 -2.0293,-5.395268 0.022,-7.446708 2.0514,-2.05145 5.3733,-2.05135 7.4246,-1e-5 2.0514,2.05135 2.0515,5.373188 0,7.424618 -2.0514,2.05145 -5.3954,2.07345 -7.4467,0.0221 z"
       id="path3900"
       inkscape:connector-curvature="0"
       sodipodi:nodetypes="sszzzsssszzzsssszzzsssszzzsssssssscscsscccssssssscssscssscccsssscccssccssccssccssccsssss" />
  </g>
  <g
     inkscape:groupmode="layer"
     id="layer4"
     inkscape:label="Motor Cross Mount"
     style="display:inline"
     transform="translate(0,308.26772)">
    <path
       style="fill:#000000;stroke:#000000;stroke-width:1.0629921;stroke-miterlimit:4;stroke-opacity:1;stroke-dasharray:none;display:inline"
       d="m 35.511672,20.485929 c -3.17609,0 -6.35218,1.19592 -8.78125,3.62499 -4.85817,4.85816 -4.85819,12.70436 0,17.56251 0,0 11.85829,11.23517 17.6875,16.9375 5.69708,5.57306 7.34558,8.93657 7.34375,16.90625 -0.002,7.97336 -1.64033,11.3344 -7.34375,16.90625 -5.83332,5.69869 -17.71875,16.875001 -17.71875,16.875001 -4.85818,4.85814 -4.85816,12.70436 0,17.5625 4.85816,4.85818 12.70433,4.85815 17.5625,0 l 16.93749,-17.28125 c 5.63618,-5.76671 8.84267,-7.74867 16.90626,-7.75 8.06619,-10e-4 11.26637,1.98327 16.90625,7.75 l 16.906238,17.28125 c 4.80382,4.91187 12.70438,4.85817 17.56251,0 2.42908,-2.42908 3.625,-5.60954 3.62501,-8.78126 0,-3.17172 -1.19591,-6.35216 -3.625,-8.78124 0,0 -12.2896,-10.405411 -16.90626,-16.906251 -3.62069,-5.0984 -8.15285,-10.62175 -8.15625,-16.875 -0.003,-6.25538 4.50703,-11.83457 8.125,-16.9375 4.60948,-6.50142 16.90626,-16.90625 16.90626,-16.90625 4.85815,-4.85815 4.85818,-12.70434 0,-17.56251 -4.85815,-4.85815 -12.70438,-4.85814 -17.56251,10e-6 0,0 -10.40676,12.29406 -16.906248,16.90625 -5.09994,3.61903 -10.62146,8.15673 -16.875,8.15625 -6.25151,-4.8e-4 -11.80908,-4.53681 -16.90626,-8.15625 -6.49507,-4.61207 -16.90624,-16.90625 -16.90624,-16.90625 -2.42907,-2.42908 -5.60516,-3.625 -8.78125,-3.625 z m -0.0312,7.125 c 1.33873,-5e-5 2.66175,0.50551 3.6875,1.53125 1.02573,1.02574 1.56255,2.37543 1.5625,3.71875 -4e-5,1.34333 -0.53692,2.69317 -1.5625,3.71875 -2.05114,2.05114 -5.35477,2.05147 -7.40625,0 -2.05148,-2.05148 -2.05116,-5.38636 0,-7.4375 1.02556,-1.02558 2.38002,-1.53121 3.71875,-1.53125 z m 85.249998,0 c 1.33874,-5e-5 2.66176,0.50551 3.68751,1.53125 1.02574,1.02573 1.56255,2.37542 1.5625,3.71875 -5e-5,1.34332 -0.53693,2.69317 -1.5625,3.71875 -2.05117,2.05114 -5.3548,2.05148 -7.40626,0 -2.05149,-2.05149 -2.05116,-5.38635 0,-7.43751 1.02557,-1.02557 2.38001,-1.5312 3.71875,-1.53124 z m -66.718758,18.53125 c 1.35368,-6.4e-4 2.69044,0.50293 3.71876,1.53125 1.02831,1.02831 1.53189,2.37612 1.53124,3.71875 -6.2e-4,1.34264 -0.5055,2.69301 -1.53124,3.71875 -2.05149,2.05149 -5.41211,2.08784 -7.46875,0.0312 -2.05663,-2.05664 -2.05148,-5.41725 0,-7.46875 1.02575,-1.02574 2.39633,-1.53061 3.75,-1.53125 z m 44.15626,4.0625 c 1.34585,0.007 2.690428,0.50295 3.718748,1.53125 1.02831,1.02833 1.5319,2.37611 1.53125,3.71875 -6.3e-4,1.34264 -0.50552,2.66175 -1.53125,3.6875 -2.051498,2.05148 -5.380878,2.05663 -7.437508,0 -2.05664,-2.05664 -2.05148,-5.38602 0,-7.4375 1.02575,-1.02575 2.3729,-1.50716 3.71876,-1.5 z m -20.0625,8.53125 c 9.26027,0 16.75,7.52093 16.75,16.78125 0,9.26032 -7.48973,16.75 -16.75,16.75 -9.26027,0 -16.78125,-7.48968 -16.78125,-16.75 0,-9.26032 7.52099,-16.78125 16.78125,-16.78125 z m -20.09375,31.59375 c 1.34586,-6.5e-4 2.72169,0.50293 3.75,1.53125 1.0283,1.02832 1.56314,2.37611 1.5625,3.71875 l -0.0313,0 c -6.5e-4,1.34266 -0.53674,2.69301 -1.5625,3.71876 -2.05147,2.051481 -5.34961,2.056641 -7.40625,0 -2.05664,-2.05664 -2.05152,-5.38601 1e-5,-7.4375 1.02574,-1.02574 2.34164,-1.5306 3.6875,-1.53125 z m 44.187498,4 c 1.34585,-6.6e-4 2.69044,0.50292 3.71875,1.53125 1.02833,1.02832 1.52637,2.40184 1.53125,3.75 0.005,1.348151 -0.50551,2.693001 -1.53126,3.718751 -2.05148,2.05148 -5.4121,2.05664 -7.468738,0 -2.05664,-2.05663 -2.02019,-5.417261 0.0312,-7.468751 1.02572,-1.02574 2.372878,-1.5306 3.718748,-1.53125 z M 35.449222,112.89218 c 1.34655,-4e-5 2.72426,0.50551 3.75,1.53125 1.02574,1.02572 1.53129,2.37542 1.53125,3.71875 -4e-5,1.34333 -0.5057,2.66192 -1.53125,3.6875 -2.05117,2.05114 -5.38602,2.05148 -7.4375,0 -2.05148,-2.05148 -2.05117,-5.35512 0,-7.40625 1.02556,-1.02558 2.34094,-1.53121 3.6875,-1.53125 z m 85.281248,0 c 1.34655,-4e-5 2.69303,0.50551 3.71876,1.53125 1.02574,1.02572 1.55702,2.36991 1.5625,3.71875 0.005,1.34886 -0.50569,2.69318 -1.53125,3.71875 -2.05116,2.05114 -5.41728,2.02019 -7.46876,-0.0312 -2.05148,-2.05148 -2.05114,-5.35511 0,-7.40625 1.02558,-1.02558 2.3722,-1.53121 3.71875,-1.53125 z"
       id="path3056-3"
       inkscape:connector-curvature="0" />
  </g>
</svg>
